<svg xmlns="http://www.w3.org/2000/svg">
  <symbol id="chat" viewBox="0 0 24 24"><path d="M21 11.5a8.5 8.5 0 0 1-8.5 8.5H4l-3 2V11.5A8.5 8.5 0 0 1 9.5 3h3a8.5 8.5 0 0 1 8.5 8.5Z"/><path d="M7 9h8M7 13h5"/></symbol>
  <symbol id="home" viewBox="0 0 24 24"><path d="m3 10 9-7 9 7v10H3ZM9 20v-7h6v7"/></symbol>
  <symbol id="file" viewBox="0 0 24 24"><path d="M14 3H5v18h14V8Zm0 0v5h5M8 12h8M8 16h6"/></symbol>
  <symbol id="play" viewBox="0 0 24 24"><rect x="3" y="4" width="18" height="16" rx="2"/><path d="m10 8 6 4-6 4Z"/></symbol>
  <symbol id="grid" viewBox="0 0 24 24"><rect x="3" y="3" width="7" height="7" rx="1"/><rect x="14" y="3" width="7" height="7" rx="1"/><rect x="3" y="14" width="7" height="7" rx="1"/><rect x="14" y="14" width="7" height="7" rx="1"/></symbol>
  <symbol id="screen" viewBox="0 0 24 24"><rect x="3" y="3" width="18" height="13" rx="2"/><path d="M12 16v5M7 21h10M7 12l3-4 3 2 4-4"/></symbol>
  <symbol id="layers" viewBox="0 0 24 24"><path d="m12 3 10 5-10 5L2 8Zm-10 9 10 5 10-5M2 16l10 5 10-5"/></symbol>
  <symbol id="check" viewBox="0 0 24 24"><path d="m5 12 4 4L19 6"/></symbol>
  <symbol id="refresh" viewBox="0 0 24 24"><path d="M20 7a9 9 0 1 0 1 8M20 3v5h-5"/></symbol>
  <symbol id="minimize" viewBox="0 0 24 24"><path d="M5 12h14"/></symbol>
  <symbol id="send" viewBox="0 0 24 24"><path d="m21 3-7 18-4-7-7-4Zm0 0L10 14"/></symbol>
</svg>
